<?xml version="1.0" encoding="UTF-8" standalone="no"?>
<!-- Created with Inkscape (http://www.inkscape.org/) -->

<svg
   version="1.1"
   id="svg2"
   width="225"
   height="225"
   viewBox="0 0 225 225"
   sodipodi:docname="favicon.svg"
   inkscape:version="1.2.1 (9c6d41e410, 2022-07-14)"
   xmlns:inkscape="http://www.inkscape.org/namespaces/inkscape"
   xmlns:sodipodi="http://sodipodi.sourceforge.net/DTD/sodipodi-0.dtd"
   xmlns="http://www.w3.org/2000/svg"
   xmlns:svg="http://www.w3.org/2000/svg">
  <defs
     id="defs6" />
  <sodipodi:namedview
     id="namedview4"
     pagecolor="#ffffff"
     bordercolor="#000000"
     borderopacity="0.25"
     inkscape:showpageshadow="2"
     inkscape:pageopacity="0.0"
     inkscape:pagecheckerboard="0"
     inkscape:deskcolor="#d1d1d1"
     showgrid="false"
     inkscape:zoom="1.8422222"
     inkscape:cx="-113.72135"
     inkscape:cy="42.340169"
     inkscape:window-width="1920"
     inkscape:window-height="1009"
     inkscape:window-x="-8"
     inkscape:window-y="-8"
     inkscape:window-maximized="1"
     inkscape:current-layer="g8" />
  <g
     inkscape:groupmode="layer"
     inkscape:label="Image"
     id="g8">
    <path
       style="fill:#fc0b08"
       d="m 80.773741,208.11015 c -10.10346,-2.49829 -11.70957,-9.33998 -5.49567,-23.41034 2.27471,-5.15072 2.43803,-6.22662 1.36619,-9 -2.64195,-6.83608 -2.53708,-14.5585 0.35133,-25.86883 3.89166,-15.23886 2.33345,-19.98997 -7.94307,-24.21903 -7.171176,-2.95114 -10.707095,-6.33203 -10.360183,-9.90596 0.423012,-4.35791 3.625156,-4.55111 12.136673,-0.73225 16.76689,7.52279 21.3682,18.16204 15.67195,36.23704 -6.45066,20.46883 -0.84485,23.09164 6.17089,2.88719 2.62008,-7.5455 4.45137,-16.62011 5.7611,-28.5481 0.60392,-5.5 2.056199,-17.26745 3.227289,-26.149881 2.4674,-18.714585 2.51441,-18.467146 -4.150459,-21.844498 -11.22621,-5.688749 -16.19984,-12.892898 -18.64425,-27.005615 -1.62995,-9.410491 -2.69344,-11.037661 -12.47268,-19.083585 -4.066785,-3.345972 -7.539652,-6.833472 -7.71748,-7.75 -0.401917,-2.071483 -0.75097,-2.088227 8.96398,0.430009 9.73934,2.524555 12.45174,2.231206 29.36496,-3.175849 15.409469,-4.926315 18.579289,-4.926315 33.988759,0 16.91322,5.407055 19.62562,5.700404 29.36496,3.175849 9.71495,-2.518236 9.3659,-2.501492 8.96398,-0.430009 -0.17782,0.916528 -3.65069,4.404028 -7.71748,7.75 -9.77924,8.045924 -10.84273,9.673094 -12.47268,19.083585 -2.45393,14.167728 -8.58569,22.836578 -19.22033,27.172991 -5.90001,2.405807 -6.03719,3.262951 -3.53303,22.076622 1.15303,8.662711 2.58862,20.250381 3.1902,25.750381 1.30351,11.91754 3.13388,20.99429 5.75684,28.5481 6.75295,19.44766 12.53595,18.53937 6.67316,-1.0481 -6.10973,-20.41249 -2.17239,-30.29527 15.16969,-38.07613 8.51151,-3.81886 11.71366,-3.62566 12.13667,0.73225 0.3405,3.50792 -3.14003,6.91404 -9.98946,9.77592 -10.68737,4.46547 -12.23448,8.99656 -8.31379,24.34907 2.8884,11.31033 2.99328,19.03275 0.35132,25.86883 -1.07659,2.78567 -0.90694,3.84165 1.46699,9.13147 5.06242,11.28057 4.552,18.60088 -1.52846,21.92069 -3.58791,1.95894 -63.427449,3.11145 -70.517909,1.35818 z M 103.9169,67.442887 c 2.7464,-1.05389 1.72066,-3.437875 -2.16821,-5.03932 -2.062499,-0.849341 -5.228589,-2.235288 -7.035749,-3.079883 -4.01298,-1.875497 -5.14652,-1.012768 -3.18761,2.426067 2.3633,4.14875 8.758909,7.087122 12.391569,5.693136 z m 29.60681,-2.410824 c 5.38983,-3.837902 5.20479,-8.252704 -0.23926,-5.708379 -1.80717,0.844595 -4.97326,2.230542 -7.03576,3.079883 -3.70655,1.526364 -4.9238,3.971156 -2.5,5.021137 2.08433,0.902924 6.75098,-0.239335 9.77502,-2.392641 z"
       id="path3843" />
  </g>
</svg>
